<svg xmlns="http://www.w3.org/2000/svg" xmlns:xlink="http://www.w3.org/1999/xlink" viewBox="0 0 1000 1000"><defs><style>.cls-1{fill:url(#linear-gradient);}.cls-2{fill:url(#linear-gradient-2);}.cls-3{fill:url(#linear-gradient-3);}.cls-4{fill:url(#linear-gradient-4);}</style><linearGradient id="linear-gradient" x1="672" y1="224.24" x2="444.55" y2="621.16" gradientUnits="userSpaceOnUse"><stop offset="0" stop-color="#00aeef"/><stop offset="1" stop-color="#4422a3"/></linearGradient><linearGradient id="linear-gradient-2" x1="378.39" y1="580.31" x2="347.8" y2="489.45" xlink:href="#linear-gradient"/><linearGradient id="linear-gradient-3" x1="664.89" y1="653.48" x2="657.6" y2="546.82" xlink:href="#linear-gradient"/><linearGradient id="linear-gradient-4" x1="527.19" y1="407.97" x2="601.01" y2="407.97" xlink:href="#linear-gradient"/></defs><g id="Layer_3" data-name="Layer 3"><path class="cls-1" d="M234,723.51s539.21-89.87,384.19-461.64a14.47,14.47,0,0,0-21.71-6.26c-40.22,28.52-145.41,123.29-98.56,309.63A42.74,42.74,0,0,1,484,608.37h0a15,15,0,0,1-23.65-6.19c-25.07-66.82-85.57-290.69,170.11-412.83,0,0,138.9,181.35-2.57,371.7C627.92,561.05,511.45,752.21,234,723.51Z"/><path class="cls-2" d="M395.9,473c-34.23,23.18-88,73.75-72.17,155.91a13.08,13.08,0,0,0,21.34,7.52c16.77-14.41,45.2-34.8,75.51-38.87a13.07,13.07,0,0,0,10.64-17.22c-7.37-21.48-18.15-60.11-15-95.25A13.08,13.08,0,0,0,395.9,473Z"/><path class="cls-3" d="M696,545.59c18.57,36.86,38.18,101.87-8.59,163.49A15.4,15.4,0,0,1,661,705.65c-8.23-19.91-22.89-47.71-45.32-64.63a15.39,15.39,0,0,1-1.43-23.44c16-15.29,40.5-41.8,54-71.55C673.57,534.25,690.18,534,696,545.59Z"/><path class="cls-4" d="M532.26,427.93l60,16.69a6.93,6.93,0,0,0,8.55-8.47l-16.08-60a6.92,6.92,0,0,0-11.55-3.14l-43.89,43.27A6.93,6.93,0,0,0,532.26,427.93Z"/></g></svg>